<svg version="1.1" id="Layer_1" xmlns="http://www.w3.org/2000/svg" xmlns:xlink="http://www.w3.org/1999/xlink" x="0px" y="0px"
	 width="100%" viewBox="0 0 1024 1024" enable-background="new 0 0 1024 1024" xml:space="preserve">
<path fill="#000000" opacity="1.000000" stroke="none" 
	d="
M300.866455,455.912720 
	C302.564819,452.815125 304.176056,450.085602 305.601288,447.262146 
	C307.610718,443.281494 310.617950,441.479919 315.198395,441.494629 
	C319.739288,441.509247 322.144806,443.812408 324.098572,447.475037 
	C338.524445,474.518890 353.003235,501.534546 367.514893,528.532471 
	C369.732544,532.658264 371.724030,536.688538 367.832611,540.879150 
	C363.982910,545.024902 359.590424,544.150818 354.966125,542.328979 
	C342.570679,537.445740 330.082062,532.796570 317.725281,527.819031 
	C314.516418,526.526428 311.839722,526.642639 308.706512,527.989563 
	C297.692780,532.724060 286.569458,537.203857 275.481293,541.764648 
	C273.787323,542.461426 272.081451,543.142578 270.342712,543.714355 
	C266.356598,545.025024 262.677521,544.467712 259.833740,541.246704 
	C257.024597,538.064941 257.419434,534.459717 259.315674,530.994507 
	C264.432709,521.643433 269.640503,512.341980 274.804626,503.016602 
	C283.438324,487.425781 292.066101,471.831604 300.866455,455.912720 
M343.304962,507.149323 
	C335.059204,491.816986 326.813446,476.484650 318.016876,460.128143 
	C316.968750,468.243408 317.564819,475.064575 317.249878,481.851593 
	C317.119019,484.672485 318.809967,489.269043 313.876526,489.174103 
	C309.550537,489.090851 310.801697,484.790863 310.726501,482.026489 
	C310.567841,476.194702 310.678223,470.355621 310.678223,464.519531 
	C310.199432,464.440979 309.720642,464.362457 309.241882,464.283905 
	C297.326935,485.783905 285.411987,507.283936 273.497040,528.783936 
	C273.911255,529.103882 274.325500,529.423767 274.739716,529.743713 
	C285.035065,525.518494 295.263855,521.118591 305.659912,517.157654 
	C309.590485,515.660034 311.059509,513.513245 310.772064,509.378723 
	C310.582520,506.652344 309.510071,502.304413 313.833710,502.209930 
	C318.690918,502.103790 317.401184,506.729797 317.203644,509.521393 
	C316.875366,514.160400 318.702423,516.428955 323.009491,517.914185 
	C331.505280,520.843872 339.816772,524.304810 348.235718,527.462769 
	C350.284637,528.231323 352.204620,529.704773 355.175781,529.357605 
	C351.164398,521.859985 347.404541,514.832458 343.304962,507.149323 
z"/>
<path fill="#000000" opacity="1.000000" stroke="none" 
	d="
M633.327820,507.330048 
	C632.496460,508.400452 631.870789,509.180084 631.272339,509.980072 
	C625.925781,517.127136 624.826843,517.534851 615.628967,515.697144 
	C615.301025,512.995361 617.541931,511.621796 618.835571,509.841217 
	C621.869080,505.665955 624.888062,501.446381 628.309448,497.597168 
	C631.127258,494.427032 630.774536,492.021301 628.162415,488.982483 
	C624.694092,484.947632 621.630066,480.564789 618.401733,476.324341 
	C617.426453,475.043365 616.152344,473.895752 616.177917,472.112793 
	C623.172424,469.575989 626.253540,470.478424 630.581848,475.717682 
	C632.888367,478.509644 634.492126,481.901917 637.718201,484.390900 
	C644.499695,479.581512 646.480225,466.509338 659.259766,471.870880 
	C659.011536,475.168060 656.164734,477.018036 654.523682,479.544617 
	C651.450073,484.276703 645.276794,488.089630 645.152283,493.269684 
	C645.026489,498.503632 651.270569,502.330597 654.463074,506.964264 
	C656.055847,509.276062 657.989258,511.353241 660.217712,514.087646 
	C661.539062,510.222595 661.753967,506.793091 661.468933,503.500031 
	C660.661011,494.165344 662.093262,484.858948 661.514282,475.542664 
	C661.368225,473.193115 661.537781,471.057587 664.719604,471.157593 
	C667.616577,471.248657 668.230652,473.139526 668.204407,475.581268 
	C668.169006,478.882751 668.195618,482.184906 668.195618,485.843414 
	C672.146667,485.272491 675.220520,483.466858 678.797424,483.587006 
	C686.555359,483.847504 691.514099,487.885498 692.108765,495.618561 
	C692.541748,501.248474 692.217041,506.935852 692.254639,512.597412 
	C692.270508,514.986267 691.370605,516.321533 688.742432,516.327881 
	C686.016907,516.334473 685.424988,514.892090 685.414062,512.518311 
	C685.392700,507.858459 685.227356,503.197388 685.028198,498.540802 
	C684.772949,492.573975 682.616394,490.187714 677.518372,490.054443 
	C672.147766,489.914093 668.747375,492.855347 668.347900,498.443848 
	C668.051575,502.589142 668.040344,506.776215 668.234741,510.929108 
	C668.424561,514.986938 666.875854,515.956726 662.787964,516.469421 
	C652.745667,517.728638 645.346741,514.925964 640.835144,505.555023 
	C640.291199,504.425110 639.155457,503.580109 638.317810,502.630066 
	C635.670044,503.227844 635.001770,505.557739 633.327820,507.330048 
z"/>
<path fill="#000000" opacity="1.000000" stroke="none" 
	d="
M259.940033,554.459351 
	C259.958984,547.284485 263.521851,545.250977 269.600983,548.772888 
	C282.137573,556.035828 294.678467,563.301636 307.009583,570.903748 
	C311.706390,573.799316 315.520660,573.872314 320.307007,570.958801 
	C332.252686,563.687256 344.512085,556.930481 356.661682,549.995361 
	C358.097473,549.175781 359.565704,548.248962 361.138855,547.871155 
	C363.737213,547.247192 366.193939,547.766357 367.568024,550.403320 
	C369.011749,553.173828 368.313751,555.717224 365.933655,557.504272 
	C363.682922,559.194214 361.146423,560.513733 358.692657,561.921265 
	C347.281006,568.467102 335.853271,574.985046 324.433624,581.517029 
	C317.160889,585.677002 309.936401,585.677307 302.687500,581.402832 
	C289.920380,573.874512 277.127045,566.390564 264.337860,558.899719 
	C262.589539,557.875732 260.959106,556.752930 259.940033,554.459351 
z"/>
<path fill="#000000" opacity="1.000000" stroke="none" 
	d="
M578.110596,476.038788 
	C586.176331,469.967926 594.583252,469.062653 603.265381,473.284393 
	C611.201904,477.143707 614.601562,484.092041 615.265930,492.651428 
	C615.578857,496.683716 614.064636,498.411377 609.869812,498.286194 
	C602.553894,498.067902 595.227051,498.194641 587.904968,498.218536 
	C586.133423,498.224335 584.262268,497.879669 582.462402,499.178467 
	C583.088623,504.139374 586.800781,505.720703 590.691406,506.518982 
	C595.163818,507.436615 599.851440,507.315948 603.526367,504.145813 
	C607.729309,500.520233 609.292419,504.142212 611.288269,506.569244 
	C613.870361,509.709137 610.815491,511.069885 609.014954,512.432007 
	C599.188721,519.865540 583.379822,518.144592 575.428101,508.906799 
	C567.845215,500.097504 568.930786,485.352081 578.110596,476.038788 
M588.748230,489.069489 
	C593.593506,488.739777 598.573364,489.834015 603.444885,488.214691 
	C601.397888,482.852112 596.622742,479.853668 591.643433,480.411896 
	C586.661804,480.970398 583.288818,483.925903 582.473877,488.475922 
	C584.175232,489.445953 586.049805,488.910278 588.748230,489.069489 
z"/>
<path fill="#000000" opacity="1.000000" stroke="none" 
	d="
M496.956329,510.797577 
	C486.920837,518.897461 473.762207,519.172485 464.440643,511.749359 
	C456.533600,505.452667 454.000275,493.416504 458.511353,483.578918 
	C462.808655,474.207550 473.257965,469.013245 483.339172,471.237122 
	C494.121552,473.615692 501.125122,482.190155 501.323853,492.855255 
	C501.394653,496.656616 500.145020,498.343536 496.183929,498.251801 
	C488.860565,498.082153 481.530182,498.174927 474.203278,498.230011 
	C472.424194,498.243378 470.533752,497.776215 468.619171,499.165649 
	C468.309845,501.758820 470.045349,503.345123 472.032349,504.494415 
	C477.834290,507.850281 483.682007,507.941650 489.481964,504.322693 
	C491.038513,503.351471 492.697510,501.057556 494.569031,503.509857 
	C496.086914,505.498749 499.730194,506.933807 496.956329,510.797577 
M475.665070,489.071930 
	C480.230621,489.071930 484.796204,489.071930 489.481171,489.071930 
	C488.310242,483.579346 484.031067,480.336609 478.678589,480.368195 
	C473.522705,480.398621 469.525391,483.533142 468.331879,489.069824 
	C470.549316,489.069824 472.648132,489.069824 475.665070,489.071930 
z"/>
<path fill="#000000" opacity="1.000000" stroke="none" 
	d="
M400.939575,458.789978 
	C410.018555,456.255402 411.488037,456.980103 414.875244,464.779388 
	C419.828735,476.185242 424.868164,487.553833 429.862671,498.919495 
	C432.668457,498.324585 432.774261,496.176636 433.450195,494.679962 
	C438.035675,484.526947 442.518097,474.326843 446.966095,464.112457 
	C450.010681,457.120850 451.738647,456.322418 459.722992,458.571228 
	C460.494965,460.522491 459.315826,462.109467 458.608612,463.726929 
	C451.547485,479.876312 444.337433,495.961731 437.428589,512.175598 
	C435.981689,515.571228 433.947021,516.416870 430.565308,516.418823 
	C427.189972,516.420776 425.106750,515.595337 423.650665,512.214600 
	C416.415863,495.416229 408.917450,478.731476 401.542664,461.993164 
	C401.152161,461.106842 401.042938,460.096558 400.939575,458.789978 
z"/>
<path fill="#000000" opacity="1.000000" stroke="none" 
	d="
M545.484497,462.351257 
	C550.605347,461.647766 554.970093,460.979645 554.574890,468.329498 
	C554.374329,472.059540 558.239380,470.649078 560.464722,470.911438 
	C563.201050,471.233978 566.216003,470.492401 566.422180,474.946930 
	C566.616089,479.134094 565.364685,481.445129 560.924011,480.935059 
	C555.688782,480.333649 553.720703,482.436371 554.247253,487.709259 
	C554.658325,491.826263 554.272095,496.017761 554.355835,500.173828 
	C554.477234,506.203888 556.908142,508.382141 562.528992,506.393860 
	C566.845825,504.866852 567.233398,507.527679 568.428345,510.083191 
	C570.020691,513.488586 567.686890,514.546082 565.318970,515.585938 
	C554.135132,520.497131 543.787476,513.795410 543.695312,501.565674 
	C543.645386,494.938751 543.686401,488.311188 543.686401,481.331665 
	C538.891174,481.037689 534.927795,480.042389 536.217834,474.140808 
	C536.473389,472.971771 536.787842,471.383514 538.006042,471.431732 
	C543.939087,471.666443 543.742065,467.476318 544.083740,463.536804 
	C544.116028,463.164612 544.724304,462.842346 545.484497,462.351257 
z"/>
<path fill="#000000" opacity="1.000000" stroke="none" 
	d="
M761.319824,490.957489 
	C767.023315,503.850464 761.942749,514.555908 749.475586,516.822998 
	C747.247681,517.228149 745.187744,516.895691 743.086487,516.330994 
	C740.303589,515.583252 737.946716,513.551514 734.552979,516.049805 
	C732.523743,517.543701 729.811279,515.980469 729.826416,512.430359 
	C729.879028,500.111328 729.841614,487.791809 729.812866,475.472565 
	C729.806946,472.959076 730.641418,471.231934 733.455566,471.168304 
	C736.297729,471.104065 737.111694,472.787262 737.197327,475.326935 
	C737.312988,478.755798 736.744995,482.239899 737.718567,486.008484 
	C746.691589,482.387970 754.832275,482.235382 761.319824,490.957489 
M741.322571,491.560913 
	C736.829956,495.952637 735.842285,501.705597 738.789612,506.314301 
	C741.193787,510.073700 745.865051,511.614624 750.160828,510.065338 
	C755.764404,508.044373 758.274292,502.127167 756.075745,496.120300 
	C754.037476,490.551300 748.978149,488.771729 741.322571,491.560913 
z"/>
<path fill="#000000" opacity="1.000000" stroke="none" 
	d="
M519.349915,505.979736 
	C519.348145,507.799866 519.203125,509.146973 519.373047,510.453125 
	C519.968018,515.025085 518.079407,516.607544 513.489624,516.436340 
	C509.768707,516.297546 508.607880,514.959229 508.652313,511.385651 
	C508.790619,500.262756 508.607788,489.135864 508.746216,478.012939 
	C508.775909,475.625854 507.300415,472.126373 511.054321,471.290009 
	C514.342957,470.557312 518.069336,469.879028 520.119141,474.004913 
	C523.441956,472.830933 526.399414,471.215546 529.739502,470.891693 
	C532.015930,470.670990 534.517334,470.718689 534.225098,473.866699 
	C533.977844,476.529755 536.420471,480.468384 531.185364,481.320038 
	C522.774292,482.688324 519.796875,486.062469 519.409485,494.530701 
	C519.242737,498.176392 519.361877,501.835144 519.349915,505.979736 
z"/>
<path fill="#000000" opacity="1.000000" stroke="none" 
	d="
M702.298584,489.177856 
	C702.320557,493.816559 702.153381,497.987885 702.406921,502.133514 
	C702.730713,507.428986 705.396790,510.290955 709.804932,510.618805 
	C714.315186,510.954315 718.047485,508.190491 719.137390,503.352142 
	C720.207825,498.600281 719.399536,493.734039 719.609497,488.923920 
	C719.708618,486.653748 719.155090,483.946442 722.770325,483.900238 
	C726.153381,483.857025 726.285828,486.190735 726.279541,488.685699 
	C726.260193,496.340515 726.339844,503.995972 726.263428,511.650055 
	C726.215942,516.406616 724.116455,517.776062 720.142578,515.156982 
	C718.245850,513.906921 717.430908,514.980774 716.220032,515.460571 
	C704.510315,520.100403 695.748657,514.299622 695.670044,501.804169 
	C695.642761,497.477661 695.621460,493.150391 695.673889,488.824402 
	C695.701416,486.553436 695.233032,483.889191 698.879700,483.874451 
	C702.367737,483.860352 702.300171,486.283356 702.298584,489.177856 
z"/>
<path fill="#000000" opacity="1.000000" stroke="none" 
	d="
M666.865112,542.406982 
	C664.777954,544.535828 664.140259,546.370544 665.851074,548.815857 
	C666.950134,550.386902 668.179810,552.071289 668.152161,554.551697 
	C665.800964,555.859741 663.909851,555.500061 662.499512,553.030823 
	C661.676025,551.589233 660.925964,550.105896 660.136658,548.644592 
	C659.379333,547.242371 658.387390,546.082275 656.612183,546.554321 
	C655.009949,546.980225 655.014771,548.483704 654.832764,549.796875 
	C654.695984,550.783997 654.566528,551.772461 654.403931,552.755493 
	C654.156677,554.250000 653.420593,555.216187 651.743225,555.036194 
	C650.307190,554.882141 649.758118,553.864624 649.749146,552.615540 
	C649.701355,545.972168 649.700928,539.328369 649.721924,532.684875 
	C649.725098,531.665527 650.104492,530.772217 651.068542,530.191406 
	C653.238220,528.884338 662.638000,529.826477 665.033386,531.795654 
	C668.472351,534.622620 668.907776,538.159180 666.865112,542.406982 
M655.547302,541.301453 
	C656.526245,541.416687 657.519836,541.698914 658.481140,541.614136 
	C660.839417,541.406067 662.847900,540.471008 662.648376,537.700134 
	C662.449890,534.943054 660.323547,534.249084 657.969849,534.360596 
	C652.884033,534.601379 654.628967,538.045410 655.547302,541.301453 
z"/>
<path fill="#000000" opacity="1.000000" stroke="none" 
	d="
M620.502563,533.605957 
	C626.533813,528.472656 633.706360,528.461853 637.546936,533.384705 
	C638.615356,534.754211 640.306091,536.533875 638.482300,538.171021 
	C636.704041,539.767273 635.149475,538.254395 633.912842,536.752991 
	C631.686218,534.049744 628.832214,533.311768 625.960266,535.238220 
	C622.547241,537.527588 621.796936,541.135132 622.714661,544.993164 
	C623.506836,548.323242 625.298584,550.833557 629.152649,550.820618 
	C631.625183,550.812378 633.760193,550.141968 634.206299,547.358459 
	C633.787537,546.202881 632.883667,546.223206 632.092163,546.059570 
	C630.719482,545.775696 629.345276,545.356750 629.484314,543.630249 
	C629.659607,541.453613 631.504944,541.675171 632.917969,541.752563 
	C635.147766,541.874695 637.966675,540.655457 639.421753,542.985229 
	C640.979065,545.478760 639.658569,548.164001 638.422791,550.544006 
	C636.423096,554.395386 632.878113,555.757568 628.849426,555.684082 
	C624.292664,555.600952 620.836609,553.273682 619.053894,549.098877 
	C616.841919,543.918579 616.858093,538.734863 620.502563,533.605957 
z"/>
<path fill="#000000" opacity="1.000000" stroke="none" 
	d="
M680.836548,532.834290 
	C686.599243,528.850586 692.173645,528.712646 696.207031,532.168213 
	C700.450073,535.803406 701.788696,543.806946 699.058777,549.218384 
	C696.561523,554.168640 691.605896,556.515503 686.180847,555.316956 
	C679.158875,553.765686 675.394043,544.981567 678.420227,537.031250 
	C678.943542,535.656189 679.843811,534.424561 680.836548,532.834290 
M692.247375,549.930237 
	C696.143799,546.454224 696.631958,542.265137 694.411438,537.801270 
	C692.561523,534.082275 688.055420,533.064392 685.213135,535.654663 
	C681.867371,538.703735 681.538635,542.567993 683.135620,546.586914 
	C684.688293,550.494019 687.647949,551.618713 692.247375,549.930237 
z"/>
<path fill="#000000" opacity="1.000000" stroke="none" 
	d="
M724.556763,549.431030 
	C726.777100,544.303345 725.322510,539.259460 725.759827,534.333496 
	C725.932434,532.388916 725.481323,529.910217 728.472717,529.977356 
	C731.081970,530.035828 730.921753,532.320618 730.920776,534.101440 
	C730.918579,538.430176 730.992554,542.778137 730.621338,547.082581 
	C730.170044,552.315613 726.067688,555.828979 720.886536,555.907227 
	C715.485901,555.988770 711.564697,552.849121 710.564087,547.710205 
	C709.663147,543.082825 710.080994,538.408813 710.038757,533.754883 
	C710.021973,531.905029 710.239258,529.867554 712.875427,529.954590 
	C715.262085,530.033386 715.231689,531.928772 715.260254,533.596802 
	C715.320190,537.094299 715.261169,540.593628 715.306213,544.091553 
	C715.388672,550.485718 718.083618,552.167114 724.556763,549.431030 
z"/>
<path fill="#000000" opacity="1.000000" stroke="none" 
	d="
M755.559021,531.002319 
	C759.290710,533.243042 760.742554,536.244507 759.832214,540.081421 
	C758.876831,544.108276 756.125366,546.296387 751.994324,546.568909 
	C748.460327,546.802063 745.786133,547.680298 746.325806,552.122498 
	C746.521301,553.731079 745.862793,555.159729 743.860474,555.120178 
	C741.808655,555.079773 741.559692,553.594482 741.549866,551.980835 
	C741.513489,545.993591 741.539795,540.004822 741.405457,534.019714 
	C741.333740,530.824341 742.643921,529.479248 745.870544,529.696289 
	C749.003479,529.907166 752.213684,529.344788 755.559021,531.002319 
M746.456055,539.673401 
	C746.682800,543.661072 749.381104,542.391663 751.567749,542.017456 
	C753.932373,541.612793 755.023132,540.097595 754.690857,537.729309 
	C754.353271,535.323181 752.643494,534.588013 750.442810,534.316772 
	C746.634949,533.847412 746.474487,536.309814 746.456055,539.673401 
z"/>
</svg>